<?xml version="1.0" encoding="UTF-8"?>
<svg id="Layer_1" xmlns="http://www.w3.org/2000/svg" version="1.1" viewBox="0 0 1000 286.6000061">
  <!-- Generator: Adobe Illustrator 29.1.0, SVG Export Plug-In . SVG Version: 2.1.0 Build 142)  -->
  <path d="M0,0h1000v286.6000061H0V0Z" style="fill: #e5e5e5; fill-rule: evenodd;"/>
  <g style="isolation: isolate;">
    <g style="isolation: isolate;">
      <text transform="translate(392.6118164 215.6862183)" style="fill: #394a63; font-family: ArialMT, Arial; font-size: 57.6867905px; isolation: isolate;"><tspan x="0" y="0">BGDesk</tspan></text>
    </g>
  </g>
  <g>
    <path d="M522.2981771,140.921224c-6.8066406-6.484375-11.0481771-16.6048177-11.6341146-27.7636719-.094401-1.7708333-1.5559896-3.1575521-3.3300781-3.1575521h-14.6679688c-1.7724609,0-3.2356771,1.3867188-3.3284505,3.1575521-.5875651,11.1588542-4.827474,21.2792969-11.6357422,27.7604167-.9879557.9407552-1.3037109,2.3893229-.797526,3.6523438.5061849,1.266276,1.7333984,2.0963542,3.0957031,2.0963542h40c1.3639323,0,2.5878906-.8300781,3.0957031-2.0963542.5045573-1.2630208.1888021-2.7115885-.797526-3.6490885Z" style="fill: #0e538c;"/>
    <rect x="450" y="53.3333333" width="100" height="73.3333333" rx="10" ry="10" style="fill: #027af2;"/>
    <line x1="493.3333333" y1="120" x2="506.6666667" y2="120" style="fill: none; stroke: #e3faff; stroke-linecap: round; stroke-linejoin: round; stroke-width: 6.6666667px;"/>
    <g id="Interface__x2F__Check">
      <path id="Vector" d="M481.6666667,86.6666667l14.3333308,14.3333308,28.6666743-28.6666679" style="fill: none; stroke: #e3faff; stroke-linecap: round; stroke-linejoin: round; stroke-width: 6.6666667px;"/>
    </g>
  </g>
</svg>